<svg width="267" height="269" viewBox="0 0 267 269" fill="none" xmlns="http://www.w3.org/2000/svg">
<rect width="267" height="269" rx="30" fill="#469BC0"/>
<g clip-path="url(#clip0_3_198)">
<path d="M134 73.5059C154.039 73.5059 156.412 73.5937 164.293 73.9453C171.617 74.2676 175.572 75.498 178.209 76.5234C181.695 77.8711 184.215 79.5117 186.822 82.1191C189.459 84.7559 191.07 87.2461 192.418 90.7324C193.443 93.3691 194.674 97.3535 194.996 104.648C195.348 112.559 195.436 114.932 195.436 134.941C195.436 154.98 195.348 157.354 194.996 165.234C194.674 172.559 193.443 176.514 192.418 179.15C191.07 182.637 189.43 185.156 186.822 187.764C184.186 190.4 181.695 192.012 178.209 193.359C175.572 194.385 171.588 195.615 164.293 195.938C156.383 196.289 154.01 196.377 134 196.377C113.961 196.377 111.588 196.289 103.707 195.938C96.3828 195.615 92.4277 194.385 89.791 193.359C86.3047 192.012 83.7852 190.371 81.1777 187.764C78.541 185.127 76.9297 182.637 75.582 179.15C74.5566 176.514 73.3262 172.529 73.0039 165.234C72.6523 157.324 72.5645 154.951 72.5645 134.941C72.5645 114.902 72.6523 112.529 73.0039 104.648C73.3262 97.3242 74.5566 93.3691 75.582 90.7324C76.9297 87.2461 78.5703 84.7266 81.1777 82.1191C83.8145 79.4824 86.3047 77.8711 89.791 76.5234C92.4277 75.498 96.4121 74.2676 103.707 73.9453C111.588 73.5937 113.961 73.5059 134 73.5059ZM134 60C113.639 60 111.09 60.0879 103.092 60.4395C95.1231 60.791 89.6445 62.0801 84.8984 63.9258C79.9473 65.8594 75.7578 68.4082 71.5977 72.5977C67.4082 76.7578 64.8594 80.9473 62.9258 85.8691C61.0801 90.6445 59.791 96.0937 59.4395 104.062C59.0879 112.09 59 114.639 59 135C59 155.361 59.0879 157.91 59.4395 165.908C59.791 173.877 61.0801 179.355 62.9258 184.102C64.8594 189.053 67.4082 193.242 71.5977 197.402C75.7578 201.562 79.9473 204.141 84.8691 206.045C89.6445 207.891 95.0938 209.18 103.063 209.531C111.061 209.883 113.609 209.971 133.971 209.971C154.332 209.971 156.881 209.883 164.879 209.531C172.848 209.18 178.326 207.891 183.072 206.045C187.994 204.141 192.184 201.562 196.344 197.402C200.504 193.242 203.082 189.053 204.986 184.131C206.832 179.355 208.121 173.906 208.473 165.938C208.824 157.939 208.912 155.391 208.912 135.029C208.912 114.668 208.824 112.119 208.473 104.121C208.121 96.1523 206.832 90.6738 204.986 85.9277C203.141 80.9473 200.592 76.7578 196.402 72.5977C192.242 68.4375 188.053 65.8594 183.131 63.9551C178.355 62.1094 172.906 60.8203 164.938 60.4688C156.91 60.0879 154.361 60 134 60Z" fill="white"/>
<path d="M134 96.4746C112.73 96.4746 95.4746 113.73 95.4746 135C95.4746 156.27 112.73 173.525 134 173.525C155.27 173.525 172.525 156.27 172.525 135C172.525 113.73 155.27 96.4746 134 96.4746ZM134 159.99C120.201 159.99 109.01 148.799 109.01 135C109.01 121.201 120.201 110.01 134 110.01C147.799 110.01 158.99 121.201 158.99 135C158.99 148.799 147.799 159.99 134 159.99Z" fill="white"/>
<path d="M183.043 94.9509C183.043 99.9314 179 103.945 174.049 103.945C169.068 103.945 165.055 99.9021 165.055 94.9509C165.055 89.9705 169.098 85.9568 174.049 85.9568C179 85.9568 183.043 89.9998 183.043 94.9509Z" fill="white"/>
</g>
<defs>
<clipPath id="clip0_3_198">
<rect width="150" height="150" fill="white" transform="translate(59 60)"/>
</clipPath>
</defs>
</svg>
