<svg width="268" height="269" viewBox="0 0 268 269" fill="none" xmlns="http://www.w3.org/2000/svg">
<rect width="268" height="269" rx="30" fill="#469BC0"/>
<path d="M92.8711 109.326H61.5278V209.278H92.8711V109.326Z" fill="white"/>
<path d="M177.657 107.159C176.502 107.015 175.274 106.943 174.046 106.87C156.497 106.148 146.603 116.548 143.136 121.026C142.197 122.253 141.764 122.975 141.764 122.975V109.615H111.793V209.567H141.764H143.136C143.136 199.384 143.136 189.273 143.136 179.09C143.136 173.601 143.136 168.113 143.136 162.624C143.136 155.835 142.631 148.613 146.025 142.403C148.914 137.203 154.114 134.603 159.963 134.603C177.296 134.603 177.657 150.274 177.657 151.719C177.657 151.791 177.657 151.863 177.657 151.863V210H209V144.786C209 122.47 197.662 109.326 177.657 107.159Z" fill="white"/>
<path d="M77.1993 96.3986C87.2505 96.3986 95.3987 88.2505 95.3987 78.1993C95.3987 68.1481 87.2505 60 77.1993 60C67.1481 60 59 68.1481 59 78.1993C59 88.2505 67.1481 96.3986 77.1993 96.3986Z" fill="white"/>
</svg>
