<?xml version="1.0" encoding="utf-8"?>
<!-- Generator: Adobe Illustrator 23.0.5, SVG Export Plug-In . SVG Version: 6.00 Build 0)  -->
<svg version="1.1" id="Layer_1" xmlns="http://www.w3.org/2000/svg" xmlns:xlink="http://www.w3.org/1999/xlink" x="0px" y="0px"
	 viewBox="0 0 73 72.4" style="enable-background:new 0 0 73 72.4;" xml:space="preserve">
<style type="text/css">
	.st0{fill:#28A951;}
</style>
<image style="overflow:visible;" width="114" height="125" xlink:href="EB88C849.jpg"  transform="matrix(1 0 0 1 -194.3427 -28.3098)">
</image>
<polygon class="st0" points="-207.3,20.9 -197.4,20.9 -208.7,10.1 -203.1,9.8 -211.9,3.2 -220.7,9.8 -214.2,10.1 -226.4,20.9 
	-216.4,20.9 -231.3,30.7 -215.7,30.7 -215.7,38.6 -211.9,38.6 -208.1,38.6 -208.1,30.7 -192.4,30.7 "/>
<g>
	<path class="st0" d="M51.4,34.4v-6.3h16.4l-14.3-9.8h9.3L51.4,7.1h6.1L48.2,0l-9.3,7.1h6.1L33.6,18.3h9.3l-14.3,9.8h16.4v6.3
		c-5.8,0-11.3,0-15.3,0c-7.4,0-11.6,1.5-13.9,2.9c-1.6,1-2.3,3.2,0.6,3.9c5.2,1.2,15.8,1.2,22,1.3c8.5,0.1,27.3,1.9,27.3,10
		S52.8,68.4,52.8,68.4H73V34.4C73,34.4,62.7,34.4,51.4,34.4z"/>
	<path class="st0" d="M6.1,40.7c0.2-5.5,9.1-6.2,12.4-6.3H0v33.9h0c9.8,0,19.6-1.9,28.7-5.8c6.6-2.8,12.7-6.6,13.2-10.6
		C43,42.7,6,47.4,6.1,40.7z"/>
</g>
</svg>
