<svg width="269" height="269" viewBox="0 0 269 269" fill="none" xmlns="http://www.w3.org/2000/svg">
<rect width="269" height="269" rx="30" fill="#469BC0"/>
<path d="M60 210L70.5437 171.481C64.0375 160.206 60.6187 147.425 60.625 134.319C60.6437 93.3437 93.9874 60 134.956 60C154.837 60.0063 173.5 67.75 187.537 81.8C201.568 95.85 209.293 114.525 209.287 134.388C209.268 175.369 175.925 208.713 134.956 208.713C122.519 208.706 110.262 205.588 99.4062 199.663L60 210ZM101.231 186.206C111.706 192.425 121.706 196.15 134.931 196.156C168.981 196.156 196.718 168.444 196.737 134.375C196.75 100.237 169.143 72.5625 134.981 72.55C100.906 72.55 73.1875 100.263 73.175 134.325C73.1687 148.231 77.2437 158.644 84.0874 169.537L77.8437 192.337L101.231 186.206ZM172.4 152.056C171.937 151.281 170.7 150.819 168.837 149.887C166.981 148.956 157.85 144.462 156.144 143.844C154.444 143.225 153.206 142.913 151.962 144.775C150.725 146.631 147.162 150.819 146.081 152.056C145 153.294 143.912 153.45 142.056 152.519C140.2 151.588 134.212 149.631 127.119 143.3C121.6 138.375 117.869 132.294 116.787 130.431C115.706 128.575 116.675 127.569 117.6 126.644C118.437 125.813 119.456 124.475 120.387 123.388C121.331 122.313 121.637 121.538 122.262 120.294C122.881 119.056 122.575 117.969 122.106 117.038C121.637 116.113 117.925 106.969 116.381 103.25C114.869 99.6313 113.337 100.119 112.2 100.062L108.637 100C107.4 100 105.387 100.462 103.687 102.325C101.987 104.187 97.1874 108.675 97.1874 117.819C97.1874 126.963 103.844 135.794 104.769 137.031C105.7 138.269 117.862 157.031 136.494 165.075C140.925 166.988 144.387 168.131 147.081 168.987C151.531 170.4 155.581 170.2 158.781 169.725C162.35 169.194 169.769 165.231 171.319 160.894C172.868 156.55 172.868 152.831 172.4 152.056Z" fill="white"/>
</svg>
